<svg xmlns="http://www.w3.org/2000/svg" viewBox="199.2 134.1 1386.7 310.4" preserveAspectRatio="xMidYMid meet"><g transform="translate(0.000000,479.000000) scale(0.100000,-0.100000)" fill="currentColor"><path d="M14661 3399 c-31 0 -69 -5 -85 -9 -15 -5 -41 -24 -58 -42 -20 -23 -27 -39 -24 -55 5 -16 -6 -35 -39 -74 -25 -29 -45 -57 -45 -63 0 -5 -18 -27 -41 -48 -22 -21 -52 -59 -65 -84 -14 -26 -38 -63 -55 -83 -16 -19 -29 -40 -29 -46 0 -6 -14 -24 -31 -41 -16 -16 -44 -56 -60 -88 -17 -33 -40 -71 -52 -84 -12 -13 -29 -32 -38 -42 -9 -9 -21 -30 -26 -46 -6 -16 -26 -57 -44 -91 -19 -35 -54 -88 -79 -119 -33 -42 -60 -63 -108 -86 -40 -18 -90 -32 -133 -37 -38 -4 -74 -12 -80 -18 -7 -7 -9 -19 -5 -28 3 -9 25 -24 48 -35 31 -14 55 -17 85 -13 24 3 43 3 43 -1 0 -3 -12 -25 -27 -49 -15 -23 -45 -64 -65 -92 -21 -27 -44 -59 -53 -70 -8 -11 -36 -49 -62 -84 -27 -35 -54 -73 -62 -85 -8 -12 -26 -33 -39 -48 -14 -15 -30 -36 -36 -46 -6 -11 -35 -52 -65 -91 -54 -71 -54 -71 -120 -71 -36 -1 -95 -5 -131 -10 -36 -5 -96 -16 -133 -24 -38 -8 -103 -27 -145 -41 -42 -15 -117 -49 -165 -77 -48 -27 -102 -63 -120 -79 -17 -16 -40 -32 -49 -35 -10 -3 -18 -12 -18 -20 0 -8 -8 -14 -19 -14 -10 0 -38 -22 -62 -48 -24 -27 -67 -74 -96 -105 -28 -31 -65 -80 -81 -109 -16 -29 -37 -78 -47 -108 -10 -30 -21 -62 -26 -70 -5 -8 -15 -28 -23 -45 -8 -16 -21 -46 -30 -67 -9 -20 -16 -51 -16 -69 0 -18 7 -59 17 -92 9 -33 26 -69 38 -81 12 -11 32 -27 43 -33 17 -10 34 -10 74 -2 29 6 71 21 93 32 22 11 51 27 65 37 14 9 41 27 61 41 20 13 68 51 105 84 38 33 106 98 151 145 45 47 130 135 188 195 58 61 153 160 212 222 58 62 111 122 117 135 7 13 21 37 31 53 11 17 32 42 47 58 28 27 28 27 291 27 206 0 274 -3 314 -15 39 -12 58 -13 79 -4 20 7 73 7 174 1 80 -5 168 -9 195 -8 28 0 91 -5 140 -12 50 -6 266 -14 485 -17 311 -4 412 -2 475 9 45 8 105 21 135 30 30 9 77 30 104 47 26 17 51 39 53 50 3 10 10 19 17 19 6 0 20 15 32 33 14 22 21 51 23 94 1 35 -3 91 -10 125 -7 35 -24 81 -37 103 -14 22 -52 66 -84 97 -32 32 -66 58 -74 58 -9 0 -49 14 -91 30 -54 22 -91 30 -134 30 -33 0 -70 -5 -81 -11 -12 -6 -60 -11 -107 -10 -47 0 -115 -6 -151 -14 -36 -8 -94 -19 -130 -25 -36 -5 -96 -17 -135 -26 -38 -9 -74 -20 -79 -25 -6 -5 -24 -9 -40 -9 -17 0 -76 -16 -131 -36 -55 -20 -122 -40 -150 -45 -27 -6 -81 -20 -120 -31 -48 -15 -96 -40 -150 -79 -45 -32 -97 -65 -118 -74 -20 -8 -37 -20 -37 -25 0 -6 -7 -10 -15 -10 -8 0 -15 -4 -15 -8 0 -5 -27 -30 -60 -58 -33 -27 -60 -54 -60 -60 0 -7 -61 -13 -182 -18 -104 -4 -185 -3 -190 2 -6 6 -1 25 11 47 10 20 33 52 49 70 17 18 41 50 55 71 13 22 32 45 41 53 9 7 16 20 16 29 0 8 12 31 27 51 15 19 35 43 44 52 10 10 26 38 38 63 11 25 24 46 29 46 6 0 17 17 25 38 9 20 43 66 76 102 33 36 61 68 61 73 0 4 10 12 23 17 12 6 45 23 72 38 28 16 86 48 130 72 43 24 91 54 105 66 14 13 44 36 68 51 23 16 91 77 151 136 60 59 113 107 119 107 5 0 20 17 32 37 12 21 30 58 40 83 10 25 32 69 49 98 17 29 31 65 31 79 0 15 9 61 21 102 13 45 22 108 23 159 1 77 -1 85 -23 103 -17 14 -38 19 -80 18z m-5 -89 c7 0 17 -15 22 -33 6 -20 6 -54 0 -88 -6 -30 -17 -74 -26 -99 -8 -25 -30 -79 -49 -120 -19 -41 -45 -86 -57 -100 -13 -14 -25 -30 -27 -36 -2 -6 -17 -29 -34 -50 -16 -21 -41 -50 -55 -64 -14 -14 -63 -59 -109 -100 -46 -41 -93 -79 -104 -83 -12 -4 -41 -24 -65 -44 -24 -19 -60 -39 -80 -44 -20 -4 -38 -6 -41 -3 -2 2 5 14 16 27 11 12 23 34 27 49 3 15 20 42 36 60 17 18 30 39 30 47 0 8 11 31 23 50 13 20 46 69 73 109 27 40 75 110 107 155 31 45 82 118 112 162 30 44 64 91 77 105 13 14 43 42 67 63 25 20 50 37 57 37z m619 -1305 c28 -2 82 -8 120 -13 39 -5 95 -20 125 -33 30 -12 65 -29 78 -37 12 -8 22 -20 22 -26 0 -7 14 -25 30 -41 17 -16 35 -45 40 -64 5 -20 10 -56 10 -80 0 -25 -9 -64 -21 -88 -12 -24 -35 -54 -53 -66 -17 -13 -48 -29 -70 -36 -21 -7 -88 -20 -150 -27 -76 -10 -212 -14 -431 -14 -183 0 -335 4 -355 10 -19 6 -107 10 -195 11 -88 0 -169 4 -180 8 -17 7 -14 11 25 28 25 11 57 23 72 26 15 4 35 16 45 26 10 10 43 28 74 39 31 12 99 49 150 84 58 39 116 70 150 79 30 8 61 13 67 11 7 -2 12 -8 12 -13 0 -5 -6 -9 -13 -9 -7 0 -23 -7 -36 -16 -16 -12 -20 -19 -12 -27 6 -6 11 -16 11 -23 0 -6 -13 -28 -30 -49 -17 -21 -30 -50 -30 -65 0 -15 6 -33 14 -39 7 -6 32 -12 56 -13 30 -1 46 4 55 16 7 9 16 33 20 53 4 20 21 55 39 77 21 27 36 60 43 96 5 30 9 74 7 97 -2 34 1 46 19 58 12 8 31 15 42 15 11 1 61 11 110 25 58 15 108 22 140 20z m-672 -145 c9 0 17 -4 17 -10 0 -5 -4 -10 -10 -10 -5 0 -37 -20 -70 -44 -33 -25 -73 -47 -89 -51 -16 -3 -35 -13 -42 -21 -6 -8 -19 -14 -29 -14 -9 0 -44 -18 -76 -40 -33 -22 -65 -40 -73 -40 -8 0 -37 -14 -65 -31 -36 -22 -72 -35 -123 -42 -40 -5 -77 -7 -81 -2 -4 4 -1 10 6 12 7 3 18 11 26 18 7 8 31 15 52 17 34 3 39 6 44 33 3 18 14 34 28 40 12 5 22 13 22 18 0 4 39 26 88 49 50 24 112 44 147 49 33 4 74 12 90 17 17 6 50 19 75 31 25 11 53 21 63 21z m-1442 -431 c3 0 8 -2 12 -5 3 -4 -14 -32 -38 -63 -24 -31 -53 -65 -64 -77 -12 -12 -21 -24 -21 -27 0 -4 -26 -32 -58 -64 -31 -32 -69 -71 -83 -88 -14 -16 -46 -49 -70 -72 -24 -23 -64 -66 -89 -95 -25 -28 -54 -61 -66 -72 -11 -12 -74 -71 -140 -133 -66 -62 -132 -121 -146 -133 -14 -11 -28 -20 -31 -20 -3 0 -28 -16 -56 -35 -29 -19 -68 -37 -88 -41 -25 -5 -38 -3 -44 7 -5 8 -7 28 -3 44 3 17 7 57 8 90 1 33 -2 66 -7 72 -6 8 -5 30 2 59 6 25 22 62 35 83 13 21 41 53 61 72 21 19 42 40 49 48 6 7 25 28 41 45 17 17 36 43 42 58 7 15 25 35 40 44 15 10 47 37 70 59 23 23 65 51 92 63 28 11 70 33 93 49 24 16 64 39 90 51 26 13 71 29 100 36 29 7 87 18 128 25 41 6 89 13 105 15 17 1 33 4 36 5z"/><path d="M11093 3380 c-10 -1 -34 -8 -53 -16 -19 -8 -76 -24 -126 -34 -49 -10 -110 -26 -135 -35 -24 -9 -57 -20 -74 -25 -16 -5 -57 -15 -90 -24 -33 -8 -61 -15 -62 -16 -2 0 -20 -8 -40 -16 -21 -8 -51 -21 -68 -28 -16 -8 -48 -20 -70 -26 -22 -6 -53 -18 -70 -25 -16 -8 -65 -30 -108 -49 -43 -20 -82 -36 -88 -36 -6 0 -34 -9 -62 -21 -29 -12 -88 -37 -132 -56 -44 -19 -96 -42 -115 -51 -19 -9 -54 -29 -76 -44 -23 -16 -44 -28 -47 -28 -3 0 -40 -16 -81 -35 -42 -19 -81 -35 -87 -35 -6 0 -25 -8 -42 -17 -18 -10 -38 -26 -45 -35 -7 -10 -19 -18 -26 -18 -7 0 -40 -13 -72 -30 -32 -16 -67 -30 -76 -30 -10 0 -35 -15 -55 -34 -21 -18 -60 -45 -88 -60 -27 -14 -63 -34 -80 -44 -16 -10 -43 -26 -60 -37 -16 -10 -35 -24 -40 -31 -6 -7 -47 -31 -90 -55 -44 -23 -93 -51 -110 -62 -16 -11 -37 -27 -45 -34 -8 -8 -40 -28 -70 -46 -30 -18 -70 -39 -88 -46 -18 -8 -35 -11 -38 -8 -3 3 -1 22 5 44 6 21 11 46 11 56 0 11 -4 15 -12 11 -7 -5 -9 -2 -5 9 4 10 -5 24 -28 41 -29 22 -44 26 -103 26 -37 0 -92 -7 -120 -15 -29 -9 -52 -21 -52 -27 0 -6 -3 -9 -6 -6 -3 4 -27 -3 -52 -14 -26 -11 -64 -38 -84 -59 -21 -22 -38 -43 -38 -47 0 -5 9 -17 20 -27 19 -17 21 -17 60 9 22 14 46 26 55 26 8 0 15 5 15 10 0 6 3 9 8 8 4 -1 17 1 30 6 12 4 22 11 22 15 0 4 17 8 38 9 20 2 55 9 77 16 34 12 42 12 63 -2 18 -12 22 -21 17 -41 -4 -14 -14 -34 -22 -43 -9 -10 -12 -18 -8 -18 4 0 1 -8 -8 -17 -8 -10 -16 -22 -16 -26 0 -4 -31 -35 -68 -69 -37 -34 -72 -68 -76 -77 -5 -9 -35 -33 -68 -54 -33 -21 -57 -42 -54 -47 3 -5 0 -8 -7 -5 -7 3 -37 -13 -66 -35 -29 -22 -56 -40 -60 -40 -5 0 -19 -11 -31 -24 -13 -14 -36 -30 -52 -36 -16 -7 -29 -16 -29 -21 0 -4 -10 -11 -22 -14 -13 -4 -38 -21 -55 -38 -18 -17 -33 -28 -33 -24 0 4 -7 2 -16 -5 -9 -7 -46 -43 -83 -79 -37 -37 -92 -80 -122 -95 -30 -15 -73 -43 -96 -62 -39 -31 -43 -39 -43 -79 0 -37 3 -44 16 -39 8 3 12 2 9 -4 -3 -6 5 -10 18 -10 14 0 30 6 36 14 7 8 37 25 67 37 29 12 56 31 60 41 3 10 13 18 23 18 10 0 24 7 31 15 10 12 10 15 -1 15 -10 0 -10 3 -1 12 10 10 15 10 21 -1 7 -11 12 -10 28 5 11 11 38 36 62 56 23 21 55 45 71 55 16 9 26 21 23 27 -4 5 1 7 10 3 11 -4 20 1 27 13 6 11 15 20 21 20 6 0 29 15 52 33 23 19 49 37 57 41 8 3 29 15 45 25 17 10 29 25 27 34 -2 11 2 15 11 11 9 -3 16 3 20 15 3 13 13 21 25 21 11 0 22 3 24 8 2 4 24 24 50 45 25 20 51 37 57 37 6 0 11 5 11 10 0 6 7 10 16 10 8 0 13 4 9 9 -3 6 5 15 17 22 13 7 23 11 23 9 0 -2 19 9 42 23 24 15 47 27 52 27 5 0 26 16 47 35 20 19 43 35 50 35 8 0 19 9 26 20 7 11 18 20 25 20 7 0 13 5 13 11 0 6 6 9 14 6 7 -3 25 3 40 12 14 10 23 21 19 25 -4 4 3 9 15 13 12 3 22 8 22 12 0 4 19 15 43 26 23 10 60 32 82 49 21 17 48 36 60 43 11 6 38 20 60 31 22 11 52 30 66 43 14 13 38 31 52 39 14 8 63 38 108 65 46 28 95 57 111 66 15 9 33 21 40 26 7 5 33 18 58 27 25 10 74 32 110 49 36 17 87 46 113 64 27 18 75 42 108 54 32 12 59 26 59 30 0 5 8 9 19 9 10 0 24 7 31 15 7 8 21 15 30 15 10 0 31 10 47 23 15 12 44 30 63 39 19 9 73 31 120 49 47 18 96 40 110 49 14 9 62 30 108 45 46 16 93 37 104 47 12 10 28 18 37 18 9 0 25 6 36 14 11 7 67 28 125 46 58 18 132 45 165 60 33 15 88 36 123 46 36 10 68 26 73 36 7 13 22 18 50 18 23 0 54 8 70 17 16 10 29 23 29 30 0 7 -8 13 -17 13z"/><path d="M4464 2499 c-21 -1 -48 -3 -59 -6 -11 -2 -38 -11 -60 -20 -22 -8 -65 -26 -95 -40 -30 -13 -62 -28 -70 -33 -8 -5 -28 -17 -45 -26 -16 -9 -38 -26 -47 -37 -10 -11 -18 -17 -18 -13 0 4 -20 -5 -43 -19 -24 -14 -50 -25 -58 -25 -8 0 -27 -11 -43 -25 -16 -14 -33 -25 -37 -25 -5 0 -18 -11 -31 -23 -13 -13 -39 -30 -58 -37 -19 -8 -47 -22 -62 -32 -14 -10 -31 -18 -36 -18 -6 0 -14 -5 -18 -12 -5 -8 -2 -9 10 -5 9 4 15 3 12 -2 -4 -5 -35 -23 -71 -40 -38 -17 -65 -36 -65 -45 0 -10 -6 -13 -15 -10 -9 4 -18 -1 -22 -12 -3 -11 -17 -29 -30 -41 -13 -13 -27 -23 -31 -23 -4 0 -12 -8 -17 -19 -6 -10 -22 -37 -38 -60 -15 -22 -34 -41 -42 -41 -8 0 -15 -4 -15 -10 0 -5 -18 -28 -41 -51 -23 -23 -42 -47 -43 -54 -1 -7 -7 -19 -13 -26 -6 -8 -23 -41 -39 -74 -15 -33 -34 -65 -41 -70 -8 -6 -41 -19 -73 -29 -33 -11 -60 -25 -60 -31 0 -6 -35 -28 -77 -48 -43 -21 -93 -46 -110 -57 -18 -11 -65 -30 -105 -44 -40 -13 -105 -32 -145 -41 -39 -10 -77 -15 -84 -13 -7 2 -13 18 -13 36 -1 27 2 31 18 26 15 -5 18 -3 13 10 -5 11 -1 16 12 16 14 0 18 5 14 20 -3 11 0 27 7 35 6 8 9 19 5 25 -3 5 1 13 9 16 13 5 12 9 -4 27 -11 11 -20 26 -20 31 0 6 -5 28 -11 49 -8 32 -14 38 -30 34 -16 -4 -18 -3 -9 8 9 11 7 17 -9 27 -12 7 -21 18 -21 24 0 7 -6 14 -13 17 -7 3 -47 3 -88 1 -46 -3 -90 -12 -116 -25 -24 -12 -45 -25 -49 -30 -3 -5 -12 -9 -21 -9 -8 0 -26 -9 -40 -20 -14 -11 -29 -18 -33 -15 -4 3 -11 -7 -14 -20 -4 -14 -11 -23 -16 -20 -6 3 -10 -1 -10 -9 0 -9 -3 -16 -8 -16 -4 0 -13 -14 -21 -31 -8 -18 -16 -58 -18 -90 -3 -43 -1 -59 8 -59 7 0 10 -3 6 -6 -3 -3 6 -19 20 -35 15 -16 33 -29 41 -29 8 0 21 -8 28 -17 9 -12 13 -14 14 -5 0 8 5 10 12 6 7 -5 41 -7 76 -6 36 2 77 9 92 17 22 11 29 12 33 2 3 -7 8 -5 13 8 4 11 12 23 18 27 6 4 16 8 21 8 6 0 5 -4 -2 -8 -9 -6 -8 -19 5 -54 15 -44 18 -46 62 -52 25 -3 65 -3 90 -1 25 3 69 10 98 16 29 6 60 8 68 5 8 -3 14 1 14 8 0 9 16 17 41 21 22 4 38 10 35 13 -4 3 8 12 25 19 17 7 39 13 49 13 10 0 20 5 22 10 2 6 13 12 26 15 12 2 29 11 38 19 8 9 29 16 45 16 18 0 28 5 27 13 -2 6 3 11 11 9 8 -2 17 1 20 5 3 5 18 14 34 20 17 8 27 9 27 2 0 -5 11 -22 25 -37 22 -24 32 -27 88 -26 34 1 74 2 89 4 15 1 29 9 32 17 3 8 14 13 24 11 10 -2 43 11 72 27 29 17 73 42 99 57 25 15 64 36 87 46 22 11 48 31 57 46 10 14 26 26 36 26 12 0 21 10 25 26 4 15 5 29 1 32 -3 3 -5 1 -5 -5 0 -6 -20 -16 -45 -23 -25 -7 -45 -17 -45 -21 0 -5 -5 -9 -11 -9 -5 0 -8 4 -5 9 4 5 -3 7 -14 4 -10 -3 -18 -10 -17 -15 1 -5 -5 -13 -13 -17 -8 -4 -60 -30 -115 -58 -55 -27 -123 -56 -151 -63 -30 -8 -66 -10 -89 -6 -38 7 -38 7 -6 27 17 10 45 19 62 19 17 0 37 7 45 15 9 8 12 15 7 16 -4 1 -21 1 -38 2 -30 0 -30 0 -2 4 15 2 27 8 27 14 0 5 -6 9 -12 10 -7 0 -2 4 10 10 13 5 28 7 33 3 5 -3 9 3 9 13 0 11 17 27 48 42 26 14 57 33 69 44 12 11 27 16 34 12 8 -5 10 -4 5 3 -4 7 -2 13 3 13 6 1 17 2 24 3 6 0 12 8 12 16 0 8 6 16 13 16 6 1 14 3 17 4 3 1 10 3 16 4 7 0 15 8 18 16 3 8 12 16 19 18 7 1 24 10 38 18 13 9 24 20 24 25 0 5 7 9 15 9 8 0 15 5 15 10 0 6 24 25 53 44 29 19 59 41 66 50 7 9 22 16 32 16 11 0 29 11 41 25 12 14 26 25 32 25 6 0 17 9 24 20 7 11 19 20 27 20 8 0 15 5 15 10 0 6 11 16 25 22 14 6 24 18 23 27 -2 10 9 19 28 26 17 6 46 25 65 43 18 17 37 32 42 32 4 0 20 14 34 30 13 17 29 30 34 30 4 0 19 9 31 20 13 11 43 38 67 60 24 22 47 40 52 40 5 0 11 11 15 24 3 14 14 32 25 42 10 9 19 29 19 44 0 15 -8 34 -18 43 -11 11 -34 17 -58 16z m-156 -154 c2 -9 -13 -31 -34 -50 -21 -19 -41 -35 -45 -35 -4 0 -29 -21 -56 -47 -27 -27 -62 -55 -78 -63 -16 -8 -48 -34 -71 -57 -23 -23 -60 -51 -81 -62 -22 -11 -45 -27 -52 -35 -7 -9 -17 -13 -22 -10 -5 3 -9 1 -9 -5 0 -5 -44 -41 -97 -80 -54 -39 -107 -77 -118 -86 -10 -8 -23 -15 -28 -15 -5 0 -28 -16 -52 -36 -25 -20 -50 -34 -57 -32 -6 2 -25 -11 -41 -29 -19 -22 -37 -33 -50 -31 -11 2 -22 9 -25 16 -2 6 3 12 11 12 9 0 26 17 38 38 13 20 70 83 128 139 60 58 120 107 139 114 17 6 32 17 32 25 0 9 4 13 9 9 5 -3 21 5 34 19 13 13 34 27 46 31 12 3 29 17 37 31 9 13 21 24 26 24 5 0 28 9 50 20 23 11 47 20 54 20 7 0 26 11 43 25 16 14 51 33 77 42 26 9 49 23 51 32 2 10 21 26 41 37 20 10 40 18 44 16 5 -1 19 7 31 19 19 17 22 18 25 4z m-1923 -792 c22 -3 48 -7 58 -8 10 -1 22 -7 26 -14 5 -7 11 -12 15 -12 3 1 5 -2 4 -6 -2 -5 -6 -7 -10 -6 -4 2 -4 -5 -1 -15 6 -15 5 -15 -10 -3 -15 12 -16 11 -6 -19 10 -26 9 -35 -4 -47 -8 -9 -26 -16 -39 -17 -13 0 -23 -7 -23 -15 0 -8 -9 -19 -20 -25 -11 -6 -32 -19 -47 -29 -15 -9 -30 -16 -35 -15 -4 1 -18 -3 -31 -10 -18 -11 -31 -11 -59 -1 -20 6 -46 20 -57 30 -17 17 -18 19 -3 19 9 0 17 3 17 7 0 3 -7 14 -16 24 -14 16 -14 20 2 45 11 16 20 22 22 14 3 -7 -2 -16 -9 -21 -7 -4 -10 -12 -5 -16 4 -4 17 6 29 22 12 17 34 43 49 58 17 17 35 27 44 23 8 -3 17 1 21 10 3 9 15 20 27 24 12 5 39 6 61 3z"/><path d="M12885 2356 c-11 1 -30 0 -42 -3 -12 -2 -27 -11 -33 -19 -7 -8 -21 -14 -32 -14 -11 0 -37 -9 -57 -19 -20 -10 -108 -53 -196 -95 -88 -42 -167 -81 -175 -86 -8 -5 -62 -34 -120 -63 -58 -30 -123 -63 -145 -75 -22 -11 -80 -40 -128 -63 -48 -23 -103 -52 -121 -64 -18 -12 -49 -28 -69 -34 -20 -7 -37 -16 -39 -20 -2 -4 -30 -22 -63 -41 -33 -18 -75 -44 -93 -58 -31 -22 -39 -24 -110 -18 -42 3 -84 7 -92 8 -8 0 -33 -1 -55 -3 -39 -4 -40 -3 -37 27 2 20 -3 36 -17 48 -17 16 -30 17 -86 11 -36 -3 -65 -11 -65 -16 0 -5 -7 -9 -15 -9 -8 0 -23 -4 -33 -10 -9 -5 -66 -26 -126 -45 -60 -20 -143 -40 -184 -45 -42 -6 -79 -7 -83 -3 -4 5 -9 19 -11 33 -2 19 -17 32 -58 53 -49 25 -62 28 -118 23 -35 -3 -98 -17 -140 -32 -43 -14 -81 -30 -87 -34 -5 -4 -46 -17 -91 -28 -44 -12 -88 -24 -98 -28 -16 -6 -17 -2 -13 31 3 23 0 43 -6 50 -7 6 -20 14 -30 18 -10 4 -70 -2 -135 -13 -64 -11 -118 -25 -120 -30 -2 -6 -10 -10 -18 -10 -8 0 -22 -4 -32 -9 -9 -5 -64 -23 -122 -41 -58 -18 -139 -43 -180 -56 -41 -13 -109 -27 -151 -32 -43 -4 -85 -5 -94 -2 -14 5 -14 8 -3 16 7 6 51 29 98 53 47 24 91 50 98 59 6 9 12 31 12 50 0 18 -5 42 -11 53 -6 11 -30 29 -54 39 -24 10 -65 21 -92 25 -26 4 -61 6 -78 6 -16 -1 -37 -4 -46 -6 -8 -3 -26 -23 -40 -44 -13 -22 -31 -42 -41 -44 -9 -3 -30 -24 -48 -48 -28 -39 -31 -49 -26 -90 6 -46 6 -47 -26 -60 -18 -7 -44 -16 -58 -21 -14 -4 -56 -13 -95 -19 -38 -6 -100 -10 -136 -10 -46 1 -70 -3 -79 -13 -8 -11 -9 -20 0 -35 6 -11 20 -26 32 -32 17 -9 53 -9 153 0 75 7 149 20 175 31 25 10 58 23 74 29 16 7 32 8 35 4 3 -4 24 -14 46 -22 22 -8 81 -16 130 -18 50 -3 117 1 150 8 33 6 83 22 110 34 28 13 75 32 106 43 31 12 59 19 61 17 3 -3 33 5 69 16 35 11 78 27 94 34 17 8 41 15 55 16 14 1 32 1 41 1 9 -1 21 -13 27 -27 7 -14 24 -30 39 -36 16 -6 55 -11 88 -10 36 1 104 15 170 36 60 18 130 38 155 44 25 5 69 17 97 25 29 8 65 14 79 13 15 -1 32 -10 38 -19 8 -13 6 -21 -7 -36 -9 -10 -17 -26 -17 -34 0 -9 7 -21 15 -28 10 -9 33 -11 73 -6 31 3 84 8 116 12 33 3 76 11 95 19 20 7 68 25 106 40 39 15 85 31 103 36 18 6 38 9 44 7 6 -2 0 -14 -13 -26 -13 -12 -39 -32 -58 -44 -18 -13 -40 -35 -49 -51 -13 -20 -14 -31 -6 -44 6 -9 23 -20 38 -24 21 -6 35 -1 73 28 25 19 66 44 92 56 25 11 72 23 104 26 54 6 56 6 40 -10 -10 -9 -63 -40 -118 -69 -55 -29 -107 -58 -115 -65 -8 -6 -44 -29 -80 -50 -36 -21 -79 -51 -97 -68 -17 -16 -42 -35 -55 -43 -13 -7 -43 -23 -67 -35 -24 -12 -64 -42 -90 -66 -25 -24 -72 -68 -104 -97 -47 -42 -59 -60 -60 -86 -2 -24 5 -37 25 -53 25 -19 31 -19 90 -7 35 7 81 21 103 31 22 9 58 23 80 30 22 6 74 28 115 49 41 20 125 62 185 94 61 32 121 67 134 77 13 11 29 19 35 19 7 0 22 8 35 18 12 9 52 41 87 69 36 29 71 56 78 60 7 5 26 28 44 53 21 29 34 63 38 95 4 28 11 58 16 68 5 9 15 17 24 17 8 0 17 7 20 15 3 8 54 38 113 67 58 28 108 55 111 58 3 4 12 10 20 13 8 4 35 21 60 37 25 16 70 42 100 58 30 16 87 45 125 65 39 20 74 37 79 37 4 0 25 14 46 30 21 17 54 36 72 42 18 6 46 22 61 35 16 12 33 23 38 23 5 0 51 20 102 44 52 25 99 51 106 59 6 8 35 25 64 37 29 12 61 30 72 40 11 9 39 26 63 36 33 14 42 23 40 39 -2 12 -11 21 -23 21z m-3657 -627 c13 1 22 -5 22 -14 0 -9 -12 -20 -27 -26 -16 -7 -37 -15 -48 -19 -11 -4 -41 -18 -67 -31 -26 -13 -51 -20 -55 -15 -4 4 0 13 10 20 9 7 17 18 17 23 0 5 28 21 63 36 34 14 72 26 85 26z m2228 -219 c8 0 14 -2 14 -5 0 -3 -6 -15 -12 -28 -7 -12 -23 -38 -36 -59 -13 -21 -35 -39 -50 -43 -15 -4 -50 -24 -77 -45 -28 -22 -68 -47 -90 -57 -22 -10 -54 -28 -70 -39 -17 -12 -82 -45 -145 -73 -63 -29 -123 -56 -132 -62 -10 -5 -37 -16 -60 -24 -23 -8 -44 -12 -47 -9 -2 2 12 19 32 38 20 18 39 31 42 28 2 -3 22 7 43 22 21 14 42 26 48 26 5 0 27 16 48 34 21 19 62 47 90 62 28 15 64 38 79 51 16 12 41 26 55 29 15 4 34 12 42 19 8 6 38 25 65 41 28 15 67 37 87 47 20 10 42 25 49 33 6 8 18 14 25 14z"/><path d="M4572 1730 c-24 -1 -69 -18 -127 -48 -49 -26 -103 -56 -120 -67 -16 -11 -59 -45 -95 -76 -36 -31 -73 -59 -83 -62 -9 -4 -22 -18 -29 -32 -6 -14 -15 -25 -20 -25 -4 0 -8 -9 -8 -21 0 -17 4 -19 22 -13 19 6 21 5 11 -8 -7 -8 -10 -18 -6 -21 3 -4 10 -7 15 -7 5 0 13 11 19 24 7 15 17 22 28 19 11 -3 34 11 59 34 23 22 42 44 42 49 0 6 21 23 47 40 26 16 50 28 55 27 4 -2 15 8 24 22 9 14 24 25 34 25 10 0 40 11 67 24 27 14 52 21 57 16 5 -5 -1 -18 -13 -31 -11 -13 -21 -30 -22 -38 0 -9 -2 -25 -4 -35 -2 -10 -7 -22 -12 -25 -5 -3 -27 -18 -51 -34 -23 -15 -42 -29 -42 -32 0 -2 8 -2 18 2 14 5 13 3 -3 -10 -11 -9 -25 -17 -32 -17 -7 0 -15 -15 -19 -34 -3 -19 -3 -40 1 -46 5 -8 22 -10 48 -7 23 3 46 13 53 21 6 9 17 16 25 16 8 0 22 13 33 28 10 15 33 36 50 46 17 11 64 36 105 57 41 21 78 36 82 33 5 -3 22 2 39 11 16 8 31 14 33 13 1 -2 13 7 26 19 13 12 29 19 37 16 10 -4 5 -16 -19 -46 -18 -23 -38 -48 -44 -55 -7 -7 -13 -17 -13 -21 0 -5 9 -20 20 -34 13 -16 35 -28 61 -32 26 -5 44 -3 48 3 4 6 15 11 26 10 11 -1 79 8 150 20 72 11 157 24 190 29 33 4 87 6 119 3 59 -5 60 -6 69 -40 5 -19 15 -42 23 -51 8 -9 35 -19 60 -22 25 -2 60 0 77 6 18 5 43 14 57 20 14 5 39 15 55 22 17 7 41 17 55 23 14 6 39 14 55 18 17 4 35 8 40 10 6 1 24 8 40 15 17 7 41 14 55 15 14 1 34 5 46 9 15 4 30 -1 52 -20 18 -15 32 -31 32 -37 0 -5 10 -18 23 -29 12 -10 30 -18 40 -19 10 0 16 -4 12 -9 -3 -6 3 -10 12 -10 10 -1 34 -1 53 -1 19 0 48 0 63 0 15 1 46 9 67 19 22 10 49 28 60 41 11 13 20 28 20 33 0 6 -7 18 -16 28 -13 15 -21 15 -67 4 -29 -7 -71 -15 -95 -18 -39 -5 -46 -2 -76 28 -18 18 -36 40 -39 49 -4 10 -26 26 -49 36 -27 12 -60 18 -88 16 -25 -2 -52 -5 -60 -7 -8 -2 -42 -18 -75 -35 -33 -17 -89 -36 -125 -44 -36 -7 -78 -18 -95 -25 -16 -7 -43 -17 -58 -24 -16 -6 -33 -9 -38 -6 -5 4 -9 17 -9 29 0 16 -13 32 -39 50 -39 27 -39 27 -197 22 -88 -3 -181 -10 -209 -15 -27 -6 -77 -15 -109 -21 -42 -7 -63 -7 -70 1 -8 7 -6 13 7 20 9 6 17 15 17 20 0 6 7 17 15 25 8 9 15 33 15 53 0 22 -6 44 -15 51 -9 8 -31 11 -58 7 -23 -2 -51 -8 -61 -13 -13 -5 -17 -4 -12 4 3 6 -8 3 -26 -5 -18 -9 -35 -20 -38 -24 -3 -4 -17 -10 -32 -13 -14 -2 -51 -18 -81 -35 -31 -17 -60 -31 -66 -31 -6 0 -9 22 -8 51 2 45 -1 54 -26 75 -19 16 -40 24 -65 24z"/></g></svg>